<svg id="Layer_1" data-name="Layer 1" xmlns="http://www.w3.org/2000/svg" viewBox="0 0 201.76 142.34"><defs><style>.cls-1{fill:#fefefe;}</style></defs><title>tick</title><g id="sQrv8f.tif"><path class="cls-1" d="M87.47,161.82c3.07-1.8,6-2.83,8-4.8,13-12.75,25.81-25.73,38.7-38.6q40.58-40.51,81.18-81c3.33-3.32,4.46-9,2.64-12.62-2.08-4.18-6.23-6.18-11.7-4.94a13,13,0,0,0-5.79,3.57q-54,53.8-107.88,107.74c-3.88,3.88-5.94,3.87-9.77,0Q59,107.32,35.12,83.48C31.59,80,25.24,79,21.8,81.33c-5.64,3.85-6.31,11.48-1.32,16.47Q50.15,127.48,79.94,157C81.87,158.94,84.6,160,87.47,161.82Z" transform="translate(-17.12 -19.48)"/><path class="cls-1" d="M87.47,161.82c-2.87-1.79-5.6-2.88-7.53-4.79Q50.09,127.54,20.48,97.8c-5-5-4.32-12.62,1.32-16.47C25.24,79,31.59,80,35.12,83.48Q59,107.32,82.87,131.2c3.82,3.83,5.89,3.84,9.77,0Q146.55,77.26,200.52,23.42a13,13,0,0,1,5.79-3.57c5.47-1.24,9.62.77,11.7,4.94,1.83,3.67.69,9.3-2.64,12.62q-40.58,40.51-81.18,81c-12.9,12.87-25.69,25.85-38.7,38.6C93.47,159,90.54,160,87.47,161.82Z" transform="translate(-17.12 -19.48)"/></g></svg>