<?xml version="1.0" encoding="utf-8"?>
<!-- Generator: Adobe Illustrator 21.0.2, SVG Export Plug-In . SVG Version: 6.00 Build 0)  -->
<svg version="1.1" id="Layer_1" xmlns="http://www.w3.org/2000/svg" xmlns:xlink="http://www.w3.org/1999/xlink" x="0px" y="0px"
	 viewBox="0 0 81.8 110.9" style="enable-background:new 0 0 81.8 110.9;" xml:space="preserve">
<style type="text/css">
	.st0{fill:#727272;}
</style>
<title>trash</title>
<g id="HarQxk.tif">
	<path class="st0" d="M66,110.9H17c-7.5-2.3-9.9-7.6-9.8-15.2c0.3-20.8,0.1-41.6,0.1-62.4v-6h67.8c0,1.8,0,3.2,0,4.7
		c0,21.3-0.2,42.6,0.1,63.9C75.4,103.3,73.3,108.5,66,110.9z M45,68.9c0-8.7,0-17.3,0-25.9c0-2.8,0-5.9-3.6-5.9
		c-3.3,0-3.4,2.9-3.4,5.6c0,17.3,0,34.6,0,51.9c0,2.6,0.1,5.7,3.5,5.1c1.4-0.2,3.2-3.4,3.3-5.3C45.2,85.9,45,77.4,45,68.9L45,68.9z
		 M18.4,68.4c0,8.6,0,17.3,0,25.9c0,2.4-0.4,5.5,3.3,5.6s3.4-2.9,3.4-5.4c0-17.3,0-34.5,0-51.8c0-2.5,0.3-5.5-3.2-5.6
		s-3.5,2.9-3.5,5.4C18.4,51.2,18.4,59.8,18.4,68.4L18.4,68.4z M64.4,68.9c0-8.8,0.2-17.7-0.1-26.5c-0.1-1.8-1.7-5-3-5.1
		c-3.4-0.5-3.5,2.5-3.5,5.2c0,17.5,0,35,0,52.5c0,2.4-0.1,5,3.3,5s3.4-2.7,3.4-5C64.4,86.2,64.4,77.5,64.4,68.9z"/>
	<path class="st0" d="M1.8,23.4c0.6-7.9,5.1-12.5,12.4-12.5c18.1-0.1,36.3-0.1,54.4,0c7.4,0,12.1,4.9,12.1,12.5H1.8z"/>
	<path class="st0" d="M54.2,7H28.2C29,3,31,1,34.7,1c4.5-0.1,8.9-0.1,13.4-0.1C51.5,1,53.5,2.8,54.2,7z"/>
</g>
</svg>
